# xmcd
#
# Track frame offsets:
#	150
#	17864
#	33246
#	49731
#	63988
#	82710
#	100632
#	115817
#	133936
#	149923
#	167005
#	189857
#	208284
#	230228
#	254795
#	270517
#
# Disc length: 3854 seconds
#
# Revision: 0
# Processed by: cddbd v1.5.1PL0 Copyright (c) Steve Scherf et al.
# Submitted via: audiograbber 1.81.03
#
DISCID=e90f0c10
DTITLE=Kenny Chesney - Music CD Mix
DYEAR=2005
DGENRE=Country
TTITLE0=I Lost It Track  1
TTITLE1=Don't Happen Twice Track  2
TTITLE2=The Tin Man Track  3
TTITLE3=How Forever Feels Track  4
TTITLE4=She Thinks My Tractor's Sexy Track  5
TTITLE5=Young Track  6
TTITLE6=Good Stuff Track  7
TTITLE7=Big Star Track  8
TTITLE8=No Shoes, No Shirt (No Problems) Track  9
TTITLE9=I Can't Go There Track 10
TTITLE10=There Goes My Life Track 11
TTITLE11=I Go Back Track 12
TTITLE12=When The Sun Goes Down Track 13
TTITLE13=Anything But Mine Track 14
TTITLE14=Old Blue Chair Track 15
TTITLE15=Live Those Songs* Track 16
EXTD=
EXTT0=
EXTT1=
EXTT2=
EXTT3=
EXTT4=
EXTT5=
EXTT6=
EXTT7=
EXTT8=
EXTT9=
EXTT10=
EXTT11=
EXTT12=
EXTT13=
EXTT14=
EXTT15=
PLAYORDER=
